<svg xmlns="http://www.w3.org/2000/svg" width="31.344" height="27.426" viewBox="0 0 31.344 27.426">
  <path id="Icon_awesome-camera" data-name="Icon awesome-camera" d="M31.344,9.107V26.738a2.939,2.939,0,0,1-2.939,2.939H2.939A2.939,2.939,0,0,1,0,26.738V9.107A2.939,2.939,0,0,1,2.939,6.168H8.326l.753-2.014a2.934,2.934,0,0,1,2.749-1.9h7.683a2.934,2.934,0,0,1,2.749,1.9l.759,2.014h5.387A2.939,2.939,0,0,1,31.344,9.107Zm-8.326,8.816a7.346,7.346,0,1,0-7.346,7.346A7.352,7.352,0,0,0,23.018,17.922Zm-1.959,0a5.387,5.387,0,1,1-5.387-5.387A5.4,5.4,0,0,1,21.059,17.922Z" transform="translate(0 -2.25)" fill="#ba66a3"/>
</svg>
