<svg xmlns="http://www.w3.org/2000/svg" width="30" height="30" viewBox="0 0 30 30">
  <path id="Icon_awesome-instagram" data-name="Icon awesome-instagram" d="M15,9.546a7.692,7.692,0,1,0,7.69,7.692A7.679,7.679,0,0,0,15,9.546Zm0,12.692a5,5,0,1,1,5-5A5.009,5.009,0,0,1,15,22.238ZM24.8,9.231A1.794,1.794,0,1,1,23,7.437,1.79,1.79,0,0,1,24.8,9.231Zm5.093,1.821a8.879,8.879,0,0,0-2.423-6.286,8.934,8.934,0,0,0-6.284-2.423c-2.476-.141-9.9-.141-12.375,0A8.921,8.921,0,0,0,2.523,4.76,8.908,8.908,0,0,0,.1,11.046c-.141,2.477-.141,9.9,0,12.378a8.879,8.879,0,0,0,2.423,6.286,8.945,8.945,0,0,0,6.284,2.423c2.476.141,9.9.141,12.375,0a8.875,8.875,0,0,0,6.284-2.423,8.938,8.938,0,0,0,2.423-6.286c.141-2.477.141-9.894,0-12.371Zm-3.2,15.028a5.062,5.062,0,0,1-2.851,2.852c-1.974.783-6.659.6-8.841.6s-6.873.174-8.841-.6a5.062,5.062,0,0,1-2.851-2.852c-.783-1.975-.6-6.661-.6-8.843s-.174-6.875.6-8.843A5.062,5.062,0,0,1,6.157,5.543c1.974-.783,6.659-.6,8.841-.6s6.873-.174,8.841.6A5.062,5.062,0,0,1,26.69,8.395c.783,1.975.6,6.661.6,8.843S27.473,24.113,26.69,26.081Z" transform="translate(0.005 -2.238)" fill="#ba66a3"/>
</svg>
