<svg xmlns="http://www.w3.org/2000/svg" width="33.531" height="23.461" viewBox="0 0 33.531 23.461">
  <path id="Icon_awesome-eye" data-name="Icon awesome-eye" d="M31.807,14.646A17.779,17.779,0,0,0,16,4.5,17.781,17.781,0,0,0,.193,14.646a1.9,1.9,0,0,0,0,1.669A17.779,17.779,0,0,0,16,26.462,17.781,17.781,0,0,0,31.807,16.315,1.9,1.9,0,0,0,31.807,14.646ZM16,23.716a8.12,8.12,0,0,1-8-8.236,8.12,8.12,0,0,1,8-8.236,8.12,8.12,0,0,1,8,8.236A8.116,8.116,0,0,1,16,23.716ZM16,9.99a5.155,5.155,0,0,0-1.406.217,2.8,2.8,0,0,1-.261,3.557,2.6,2.6,0,0,1-3.455.269,5.558,5.558,0,0,0,2.171,5.984,5.2,5.2,0,0,0,6.2-.2,5.574,5.574,0,0,0,1.8-6.113A5.335,5.335,0,0,0,16,9.99Z" transform="translate(0.766 -3.75)" fill="none" stroke="#707070" stroke-width="1.5"/>
</svg>
