<svg xmlns="http://www.w3.org/2000/svg" width="30" height="30" viewBox="0 0 30 30">
  <path id="Icon_awesome-facebook-square" data-name="Icon awesome-facebook-square" d="M26.786,2.25H3.214A3.214,3.214,0,0,0,0,5.464V29.036A3.214,3.214,0,0,0,3.214,32.25h9.191v-10.2H8.186v-4.8h4.219V13.591c0-4.162,2.478-6.461,6.273-6.461a25.558,25.558,0,0,1,3.718.324v4.085H20.3a2.4,2.4,0,0,0-2.707,2.594V17.25H22.2l-.737,4.8H17.595v10.2h9.191A3.214,3.214,0,0,0,30,29.036V5.464A3.214,3.214,0,0,0,26.786,2.25Z" transform="translate(0 -2.25)" fill="#ba66a3"/>
</svg>
