<svg xmlns="http://www.w3.org/2000/svg" width="168.13" height="82.678" viewBox="0 0 168.13 82.678">
  <g id="gatinho_petgato_branco" data-name="gatinho petgato branco" transform="translate(83.754 34.911)">
    <g id="Group_1" data-name="Group 1" transform="translate(-1.629 2.768)">
      <g id="line1">
        <path id="Path_1" data-name="Path 1" d="M16.8-29.2a6.489,6.489,0,0,0-3.55-3.35,1.5,1.5,0,0,1-.4-.2,6.186,6.186,0,0,0-3.5-.75,8.056,8.056,0,0,0-1.95.2v-.9c.05-.85,0-1.35-.9-1.4a21.635,21.635,0,0,0-3.6,0c-1.05,0-1.15.65-1.2,1.25a11.44,11.44,0,0,0-.05,1.85v2.9c0,.95.1,1.95.15,2.95.05.5.05,1.05.05,1.55a36.1,36.1,0,0,0,.1,4.65c.05.8-.05,1.55-.05,2.35v2.8c0,.75,0,1.45-.05,2.2-.1,1.95,0,3.4,0,5.15a16.894,16.894,0,0,1,0,2.25,6.879,6.879,0,0,0,.3,1.9c.1.25.2.8,1.3.8A19.855,19.855,0,0,0,6-3.05c1.15-.15,1.45-.3,1.55-1.5,0-.7.05-1.45.1-1.95.05-.8.05-1.35.1-2.1,0-1.2.05-1.45,0-2.65-.1-1.45-.1-2.9-.25-4.35-.05-.6-.1-1.25-.1-1.9a5.961,5.961,0,0,0,3.45-.45A16.415,16.415,0,0,0,14.2-19.7a7.083,7.083,0,0,0,1.55-1.65A9.309,9.309,0,0,0,17.3-24.8,6.1,6.1,0,0,0,16.8-29.2Z" fill="#fff"/>
        <path id="Path_2" data-name="Path 2" d="M33.9-7c-.25-.9-.45-1.2-2.4-1.3H30.15a30.2,30.2,0,0,0-4.75.05v-.4A12.259,12.259,0,0,1,25.5-10c.05-.9.05-1.8.1-2.75v-.2h.1c1.85,0,3.75.05,5.6.2.9.05,1.3-.15,1.4-.75.15-1.15.2-2.25.3-3.35a2.051,2.051,0,0,0-.05-.55,1.207,1.207,0,0,0-1.2-.75H29c-1.1,0-2.15,0-3.2-.05h-.2v-.55c-.05-.85,0-1.65,0-2.5a3.267,3.267,0,0,1,0-.7,13.821,13.821,0,0,0,.05-3.8,20.531,20.531,0,0,1-.05-3.5c0-.3-.05-.6-.05-.9,1.3.05,2.55.05,3.8.1a15.948,15.948,0,0,0,3.75-.4.766.766,0,0,0,.75-.6,2.072,2.072,0,0,0,.1-.8,11.422,11.422,0,0,0,0-1.85,1.876,1.876,0,0,0-.05-.5c-.25-.9-.5-1.2-2.55-1.3H29.9a36.1,36.1,0,0,0-5.2.05c-.65.05-1.25.05-1.9.1-1.35.05-2.05.2-2.4.6-.35.1-.45.25-.45.65a.184.184,0,0,0,.05.15,4.926,4.926,0,0,1,.1.85c.05.55.05,1.05.1,1.6v2.05c.05,1.25.25,2.45.35,3.65.05,1.05.05,2.1.1,3.15,0,0-.05,1.45-.05,2.15a11.376,11.376,0,0,1-.1,1.3c0,.25-.05.55-.05.85v10.3c0,1.3-.05,2.55-.05,3.85v.6c.05.3.15.4.5.45a12.311,12.311,0,0,0,1.3.1h.45c.5.05,1.05.05,1.6.1h1.7c1.3.05,2.5.05,3.7.1a13.934,13.934,0,0,0,3.5-.4.908.908,0,0,0,.75-.55,4.851,4.851,0,0,0,.05-.85,11.422,11.422,0,0,0,0-1.85A1.876,1.876,0,0,0,33.9-7Z" fill="#fff"/>
        <path id="Path_3" data-name="Path 3" d="M54.2-34.3c0-.15-.1-.25-.2-.4a2.336,2.336,0,0,0-1.8-.55c-1.8,0-3.55-.05-5.35,0-2.15.05-4.35,0-6.55.1a27.3,27.3,0,0,0-2.85.2c-1.15.25-1.45.4-1.55.95a6.486,6.486,0,0,0,.55,3.2,2.748,2.748,0,0,0,.35.45c.5.55.75.55,2.2.55,1.05,0,2.1,0,3.15-.05,0,1.35,0,2.55.1,3.75a2.434,2.434,0,0,1-.05.6,38.3,38.3,0,0,0,0,4.15c.05.95.15,1.95.15,2.9.05,1.95,0,3.85-.1,5.8A38.285,38.285,0,0,0,42.3-7.3c.05,1,0,2.05.05,3.05v.8a.648.648,0,0,0,.6.5A11.063,11.063,0,0,0,47.2-3c.4-.05.5-.2.55-.6a41.94,41.94,0,0,0,.2-5.6,21.743,21.743,0,0,1,.1-2.55c.15-1.15.15-2.35.25-3.5a20.086,20.086,0,0,0,.05-3.05,17.665,17.665,0,0,1-.05-2.3,18.2,18.2,0,0,0-.1-2.15,2.367,2.367,0,0,1-.05-.85c.05-1.05,0-2.1.1-3.15a17.647,17.647,0,0,0,0-2.3v-1c.65,0,1.35,0,2,.05a13.631,13.631,0,0,0,2.85-.15c1.15-.15,1.35-.3,1.35-.75C54.4-31.45,54.25-33.7,54.2-34.3Z" fill="#fff"/>
      </g>
    </g>
    <g id="Group_2" data-name="Group 2" transform="translate(-1.35 45.655)">
      <g id="line2">
        <path id="Path_4" data-name="Path 4" d="M5.05-21.25c.1,0,.2.1.3.15a4.623,4.623,0,0,0,3.05.8,7.5,7.5,0,0,0,1.85-.2,1.1,1.1,0,0,0,.9-1.15,27.513,27.513,0,0,0,.15-4.55c.05-2.6,0-4.3,0-7.2a9.609,9.609,0,0,1,0-1.2c.05-1.4-.3-1.6-1.2-1.8a.175.175,0,0,1-.1-.05,4.633,4.633,0,0,0-2.95.5,10.532,10.532,0,0,0-2.9,1.7A9.177,9.177,0,0,0,2.8-32.6a12.871,12.871,0,0,0-1.3,3.5,7.291,7.291,0,0,0,.45,4.4A6.381,6.381,0,0,0,5.05-21.25Zm12.5-16.4c-.15-.75-.35-.8-1.3-.9s-2.9-.3-3.4.15c-.35.3-.4,4.3-.35,7.6h0v4.15c.05.65,0,1.55,0,2.45,0,1.95-.05,3-.1,4.6a17.422,17.422,0,0,0,0,2.8c-.05,1.2-.15,2.55-.15,3.9a15.9,15.9,0,0,1-.8,4.85,8.506,8.506,0,0,1-.75,1.6c-.5.75-.95,1.15-1.85,1.05C7.65-5.5,7.15-7.15,7-7.5a16.269,16.269,0,0,1-.5-4.15,18.861,18.861,0,0,1,.55-4.7c.25-1.5-.15-1.9-.75-1.95a13.485,13.485,0,0,0-3.45.35,1.53,1.53,0,0,0-1.3,1.45c0,.25-.05,1.35-.05,1.6a30.122,30.122,0,0,0,.05,6.55,11.1,11.1,0,0,0,1.1,4.5A9.244,9.244,0,0,0,3.7-2.35,6.985,6.985,0,0,0,6.9-.15a7.191,7.191,0,0,0,5-.4l1.05-.6a5.451,5.451,0,0,0,2.35-2.4A19.232,19.232,0,0,0,16.95-9.2a39.246,39.246,0,0,0,.4-5.4c.1-2.95.1-5.95.15-8.9,0-.5-.05-1-.05-1.5C17.5-26.3,17.85-36.2,17.55-37.65Z" fill="#fff"/>
        <path id="Path_5" data-name="Path 5" d="M37.45-25.6a21.133,21.133,0,0,0-1.35-5.9,5.25,5.25,0,0,0-2.2-2.65,11.962,11.962,0,0,0-1.05-.65,6.819,6.819,0,0,0-4.95-.7,6.923,6.923,0,0,0-3.3,2.1,7.482,7.482,0,0,0-1.15,1.5,11.69,11.69,0,0,0-1.35,4.55,4.926,4.926,0,0,0-.1.85c-.05,1-.3,2.8,2,3,2.7.25,2.8-.4,2.95-1.35a10.58,10.58,0,0,1,.65-3.05c.15-.4.75-2.05,2-2.1.85-.05,1.25.4,1.75,1.2A11.162,11.162,0,0,1,32-27.1a16.7,16.7,0,0,1,.55,5c0,.25-.05.5-.05.75a24.4,24.4,0,0,0-3.7.1c-2.1.25-3.3.3-4.8,1.05a11.462,11.462,0,0,0-2.4,1.65A5.855,5.855,0,0,0,19.75-15a7.2,7.2,0,0,0,.7,4.8A7.343,7.343,0,0,0,24.5-6.8a20.929,20.929,0,0,0,4.45.7c.6.05,1.55.15,2.4.15-.05.5-.1.95-.1,1.4C31.15-2.8,34-2.45,36-2.6c.95-.05.8-1.55.8-1.65.1-1.95.15-3.15.25-5.1,0-.5.1-1.05.1-1.55.15-3.05.3-6.1.35-9.15A51.38,51.38,0,0,0,37.45-25.6Z" fill="#fff"/>
        <path id="Path_6" data-name="Path 6" d="M58.2-34.3c0-.15-.1-.25-.2-.4a2.336,2.336,0,0,0-1.8-.55c-1.8,0-3.55-.05-5.35,0-2.15.05-4.35,0-6.55.1a27.3,27.3,0,0,0-2.85.2c-1.15.25-1.45.4-1.55.95a6.486,6.486,0,0,0,.55,3.2,2.748,2.748,0,0,0,.35.45c.5.55.75.55,2.2.55,1.05,0,2.1,0,3.15-.05,0,1.35,0,2.55.1,3.75a2.434,2.434,0,0,1-.05.6,38.3,38.3,0,0,0,0,4.15c.05.95.15,1.95.15,2.9.05,1.95,0,3.85-.1,5.8A38.286,38.286,0,0,0,46.3-7.3c.05,1,0,2.05.05,3.05v.8a.648.648,0,0,0,.6.5A11.063,11.063,0,0,0,51.2-3c.4-.05.5-.2.55-.6a41.94,41.94,0,0,0,.2-5.6,21.743,21.743,0,0,1,.1-2.55c.15-1.15.15-2.35.25-3.5a20.085,20.085,0,0,0,.05-3.05,17.664,17.664,0,0,1-.05-2.3,18.2,18.2,0,0,0-.1-2.15,2.368,2.368,0,0,1-.05-.85c.05-1.05,0-2.1.1-3.15a17.647,17.647,0,0,0,0-2.3v-1c.65,0,1.35,0,2,.05a13.631,13.631,0,0,0,2.85-.15c1.15-.15,1.35-.3,1.35-.75C58.4-31.45,58.25-33.7,58.2-34.3Z" fill="#fff"/>
        <path id="Path_7" data-name="Path 7" d="M78.5-34.1c.3-.2.4-.45.2-.75-.15-.2-.35-.45-.5-.65A28.4,28.4,0,0,1,74.85-40a1.093,1.093,0,0,0-.15-.25,2.773,2.773,0,0,0-.4-.3,1.442,1.442,0,0,0-1.8.55,25.717,25.717,0,0,1-1.6,2.45,22.584,22.584,0,0,1-1.55,2,.672.672,0,0,0-.1.45c-.05.5.25.8.85.9a.975.975,0,0,0,.4.05,8.11,8.11,0,0,1,2.2.05c.45.05.95.05,1.4.1A21.5,21.5,0,0,0,78.5-34.1Zm7.2,14.75A42.676,42.676,0,0,0,85-24.7a8.679,8.679,0,0,0-1.8-3.35,8.542,8.542,0,0,0-2.8-2.7,23.328,23.328,0,0,0-2.4-1.1,9.8,9.8,0,0,0-3.05-.5c-.2.05-.3.1-.35.25a1.46,1.46,0,0,0-.1.45c-.05.45-.1,1-.15,1.5,0,.4-.15,5.55-.25,6.05-.05.4,0,5.95,0,7.5.05.95-.1,5.25,0,8,0,.15-.05,2.05.35,2.3-.05.3,1,.15,2.3.1a12.534,12.534,0,0,0,4.1-2,10.248,10.248,0,0,0,2.55-2.7,13.938,13.938,0,0,0,1.45-2.85c.2-.65.35-1.3.5-1.95A12.755,12.755,0,0,0,85.7-19.35ZM72.55-29.8c0-.1,0-2-.35-2.3,0-.25-1.05-.15-2.35-.05a12.534,12.534,0,0,0-4.1,2,9.525,9.525,0,0,0-2.55,2.7,10.62,10.62,0,0,0-1.4,2.85,11.778,11.778,0,0,0-.5,1.9,13.132,13.132,0,0,0-.4,3.7,42.023,42.023,0,0,0,.7,5.3,8.334,8.334,0,0,0,1.8,3.35,9.328,9.328,0,0,0,2.85,2.7,15.721,15.721,0,0,0,2.4,1.15,9.17,9.17,0,0,0,3.05.45.376.376,0,0,0,.35-.25,1.1,1.1,0,0,0,.05-.4c.05-.5.1-1.05.15-1.55.05-.35.15-5.5.25-6.05.05-.35,0-5.9,0-7.5C72.5-22.75,72.65-27.05,72.55-29.8Z" fill="#fff"/>
      </g>
    </g>
    <g id="logomark" transform="translate(-130.119 -74.751)">
      <g id="Group_3" data-name="Group 3">
        <path id="Path_8" data-name="Path 8" d="M55.069,57.935V72.921c0,13.33,10.806,19.417,24.138,19.417s24.135-6.087,24.135-19.417V57.935c0-10.748-2.9-15.965-2.9-15.965-7.539-.681-13.947,9.025-13.947,9.025-7.009-2.878-14.573-.124-14.573-.124S64.192,40.6,57.974,41.97C57.972,41.97,55.069,46.2,55.069,57.935Z" fill="none" stroke="#fff" stroke-linecap="round" stroke-linejoin="round" stroke-miterlimit="10" stroke-width="4"/>
        <path id="Path_9" data-name="Path 9" d="M94.218,88.936a23.546,23.546,0,0,1,8.579,18.2v13.382m-47.187,0V107.137a23.55,23.55,0,0,1,8.58-18.2" fill="none" stroke="#fff" stroke-linecap="round" stroke-linejoin="round" stroke-miterlimit="10" stroke-width="4"/>
        <circle id="Ellipse_1" data-name="Ellipse 1" cx="2.952" cy="2.952" r="2.952" transform="translate(83.005 65.223)" fill="#fff"/>
        <circle id="Ellipse_2" data-name="Ellipse 2" cx="2.952" cy="2.952" r="2.952" transform="translate(69.499 65.223)" fill="#fff"/>
        <path id="Path_10" data-name="Path 10" d="M81.484,75.907a.892.892,0,0,0-.893-.892H77.819a.892.892,0,0,0-.892.892L79.2,77.516Z" fill="#fff" stroke="#fff" stroke-linecap="round" stroke-linejoin="round" stroke-miterlimit="10" stroke-width="4"/>
        <path id="Path_11" data-name="Path 11" d="M91.637,76.136s8.917-6.985,18.482-2.66m-43.272,2.66s-8.917-6.985-18.482-2.66" fill="none" stroke="#fff" stroke-linecap="round" stroke-linejoin="round" stroke-miterlimit="10" stroke-width="4"/>
      </g>
    </g>
  </g>
</svg>
