<svg xmlns="http://www.w3.org/2000/svg" width="246.093" height="119.601" viewBox="0 0 246.093 119.601">
  <g id="gatinho_petgato" data-name="gatinho petgato" transform="translate(83.754 34.912)">
    <g id="Group_1" data-name="Group 1" transform="translate(38.366 -32.906)">
      <g id="line1" transform="translate(0 0)">
        <path id="Path_1" data-name="Path 1" d="M23.919-26.161c-1.175-2.13-2.645-4.041-5.216-4.922a2.2,2.2,0,0,1-.588-.294,9.089,9.089,0,0,0-5.142-1.1,11.836,11.836,0,0,0-2.865.294v-1.322c.073-1.249,0-1.984-1.322-2.057a31.789,31.789,0,0,0-5.289,0c-1.543,0-1.69.955-1.763,1.837A16.808,16.808,0,0,0,1.66-31.01v4.261c0,1.4.147,2.865.22,4.334.073.735.073,1.543.073,2.277A53.041,53.041,0,0,0,2.1-13.3c.073,1.175-.073,2.277-.073,3.453v4.114c0,1.1,0,2.13-.073,3.232-.147,2.865,0,5,0,7.567a24.822,24.822,0,0,1,0,3.306,10.107,10.107,0,0,0,.441,2.792c.147.367.294,1.175,1.91,1.175a29.173,29.173,0,0,0,3.747-.073c1.69-.22,2.13-.441,2.277-2.2,0-1.028.073-2.13.147-2.865.073-1.175.073-1.984.147-3.085,0-1.763.073-2.13,0-3.894-.147-2.13-.147-4.261-.367-6.391-.073-.882-.147-1.837-.147-2.792a8.758,8.758,0,0,0,5.069-.661A24.118,24.118,0,0,0,20.1-12.2a10.407,10.407,0,0,0,2.277-2.424A13.677,13.677,0,0,0,24.654-19.7,8.959,8.959,0,0,0,23.919-26.161Z" transform="translate(-1.629 35.675)" fill="#ba66a3"/>
        <path id="Path_2" data-name="Path 2" d="M40.446,6.407c-.367-1.322-.661-1.763-3.526-1.91H34.937a44.367,44.367,0,0,0-6.979.073V3.983A18.012,18.012,0,0,1,28.1,2c.073-1.322.073-2.645.147-4.041v-.294H28.4c2.718,0,5.51.073,8.228.294,1.322.073,1.91-.22,2.057-1.1.22-1.69.294-3.306.441-4.922a3.013,3.013,0,0,0-.073-.808,1.773,1.773,0,0,0-1.763-1.1H33.247c-1.616,0-3.159,0-4.7-.073h-.294v-.808c-.073-1.249,0-2.424,0-3.673a4.8,4.8,0,0,1,0-1.028,20.308,20.308,0,0,0,.073-5.583,30.166,30.166,0,0,1-.073-5.142c0-.441-.073-.882-.073-1.322,1.91.073,3.747.073,5.583.147a23.432,23.432,0,0,0,5.51-.588,1.126,1.126,0,0,0,1.1-.882A3.045,3.045,0,0,0,40.52-30.1a16.783,16.783,0,0,0,0-2.718,2.756,2.756,0,0,0-.073-.735c-.367-1.322-.735-1.763-3.747-1.91h-2.13a53.047,53.047,0,0,0-7.64.073c-.955.073-1.837.073-2.792.147-1.984.073-3.012.294-3.526.882-.514.147-.661.367-.661.955a.27.27,0,0,0,.073.22,7.238,7.238,0,0,1,.147,1.249c.073.808.073,1.543.147,2.351v3.012c.073,1.837.367,3.6.514,5.363.073,1.543.073,3.085.147,4.628,0,0-.073,2.13-.073,3.159a16.715,16.715,0,0,1-.147,1.91c0,.367-.073.808-.073,1.249V4.865c0,1.91-.073,3.747-.073,5.657V11.4c.073.441.22.588.735.661a18.088,18.088,0,0,0,1.91.147h.661c.735.073,1.543.073,2.351.147h2.5c1.91.073,3.673.073,5.436.147a20.473,20.473,0,0,0,5.142-.588,1.333,1.333,0,0,0,1.1-.808A7.128,7.128,0,0,0,40.52,9.86a16.783,16.783,0,0,0,0-2.718A2.756,2.756,0,0,0,40.446,6.407Z" transform="translate(6.968 35.724)" fill="#ba66a3"/>
        <path id="Path_3" data-name="Path 3" d="M62.8-33.844c0-.22-.147-.367-.294-.588a3.432,3.432,0,0,0-2.645-.808c-2.645,0-5.216-.073-7.861,0-3.159.073-6.391,0-9.624.147a40.106,40.106,0,0,0-4.187.294c-1.69.367-2.13.588-2.277,1.4a9.53,9.53,0,0,0,.808,4.7,4.037,4.037,0,0,0,.514.661c.735.808,1.1.808,3.232.808,1.543,0,3.085,0,4.628-.073,0,1.984,0,3.747.147,5.51a3.577,3.577,0,0,1-.073.882,56.27,56.27,0,0,0,0,6.1c.073,1.4.22,2.865.22,4.261.073,2.865,0,5.657-.147,8.522a56.252,56.252,0,0,0,.073,7.861c.073,1.469,0,3.012.073,4.481v1.175a.953.953,0,0,0,.882.735,16.255,16.255,0,0,0,6.244-.073c.588-.073.735-.294.808-.882a61.622,61.622,0,0,0,.294-8.228,31.947,31.947,0,0,1,.147-3.747c.22-1.69.22-3.453.367-5.142a29.512,29.512,0,0,0,.073-4.481,25.954,25.954,0,0,1-.073-3.379,26.739,26.739,0,0,0-.147-3.159,3.479,3.479,0,0,1-.073-1.249c.073-1.543,0-3.085.147-4.628a25.929,25.929,0,0,0,0-3.379V-27.6c.955,0,1.984,0,2.939.073a20.028,20.028,0,0,0,4.187-.22c1.69-.22,1.984-.441,1.984-1.1C63.093-29.656,62.873-32.962,62.8-33.844Z" transform="translate(14.442 35.864)" fill="#ba66a3"/>
      </g>
    </g>
    <g id="Group_2" data-name="Group 2" transform="translate(38.366 22.79)">
      <g id="line2" transform="translate(0 0)">
        <path id="Path_4" data-name="Path 4" d="M6.786-13.069c.147,0,.294.147.441.22a6.793,6.793,0,0,0,4.481,1.175,11.016,11.016,0,0,0,2.718-.294,1.612,1.612,0,0,0,1.322-1.69,40.425,40.425,0,0,0,.22-6.685c.073-3.82,0-6.318,0-10.579a14.119,14.119,0,0,1,0-1.763c.073-2.057-.441-2.351-1.763-2.645a.256.256,0,0,1-.147-.073,6.807,6.807,0,0,0-4.334.735,15.474,15.474,0,0,0-4.261,2.5A13.483,13.483,0,0,0,3.48-29.746,18.912,18.912,0,0,0,1.57-24.6a10.712,10.712,0,0,0,.661,6.465C3.26-15.935,4.582-14.024,6.786-13.069Zm18.366-24.1c-.22-1.1-.514-1.175-1.91-1.322s-4.261-.441-5,.22c-.514.441-.588,6.318-.514,11.167h0V-21c.073.955,0,2.277,0,3.6,0,2.865-.073,4.408-.147,6.759a25.6,25.6,0,0,0,0,4.114c-.073,1.763-.22,3.747-.22,5.73A23.362,23.362,0,0,1,16.19,6.325a12.5,12.5,0,0,1-1.1,2.351c-.735,1.1-1.4,1.69-2.718,1.543-1.763-.147-2.5-2.571-2.718-3.085a23.9,23.9,0,0,1-.735-6.1A27.712,27.712,0,0,1,9.725-5.87c.367-2.2-.22-2.792-1.1-2.865a19.813,19.813,0,0,0-5.069.514,2.249,2.249,0,0,0-1.91,2.13c0,.367-.073,1.984-.073,2.351a44.258,44.258,0,0,0,.073,9.624A16.3,16.3,0,0,0,3.26,12.5,13.582,13.582,0,0,0,4.8,14.7c1.469,1.469,2.718,2.718,4.7,3.232a10.565,10.565,0,0,0,7.346-.588l1.543-.882a8.01,8.01,0,0,0,3.453-3.526,28.257,28.257,0,0,0,2.424-8.3A57.664,57.664,0,0,0,24.858-3.3c.147-4.334.147-8.742.22-13.077,0-.735-.073-1.469-.073-2.2C25.079-20.489,25.593-35.035,25.152-37.166Z" transform="translate(-1.35 41.581)" fill="#ba66a3"/>
        <path id="Path_5" data-name="Path 5" d="M45.808-20.872a31.05,31.05,0,0,0-1.984-8.669,7.713,7.713,0,0,0-3.232-3.894,17.574,17.574,0,0,0-1.543-.955,10.019,10.019,0,0,0-7.273-1.028c-1.984.441-3.306,1.616-4.849,3.085a10.994,10.994,0,0,0-1.69,2.2,17.176,17.176,0,0,0-1.984,6.685,7.238,7.238,0,0,0-.147,1.249c-.073,1.469-.441,4.114,2.939,4.408,3.967.367,4.114-.588,4.334-1.984a15.545,15.545,0,0,1,.955-4.481c.22-.588,1.1-3.012,2.939-3.085,1.249-.073,1.837.588,2.571,1.763a16.4,16.4,0,0,1,.955,2.5,24.536,24.536,0,0,1,.808,7.346c0,.367-.073.735-.073,1.1a35.849,35.849,0,0,0-5.436.147c-3.085.367-4.849.441-7.053,1.543a16.841,16.841,0,0,0-3.526,2.424A8.6,8.6,0,0,0,19.8-5.3c-.367,2.792-.147,5.069,1.028,7.053a10.79,10.79,0,0,0,5.951,5,30.751,30.751,0,0,0,6.538,1.028C34.2,7.852,35.6,8,36.845,8c-.073.735-.147,1.4-.147,2.057-.147,2.571,4.041,3.085,6.979,2.865,1.4-.073,1.175-2.277,1.175-2.424C45,7.632,45.073,5.869,45.22,3c0-.735.147-1.543.147-2.277.22-4.481.441-8.963.514-13.444A75.491,75.491,0,0,0,45.808-20.872Z" transform="translate(7.233 42.993)" fill="#ba66a3"/>
        <path id="Path_6" data-name="Path 6" d="M66.8-33.844c0-.22-.147-.367-.294-.588a3.432,3.432,0,0,0-2.645-.808c-2.645,0-5.216-.073-7.861,0-3.159.073-6.391,0-9.624.147a40.106,40.106,0,0,0-4.187.294c-1.69.367-2.13.588-2.277,1.4a9.53,9.53,0,0,0,.808,4.7,4.036,4.036,0,0,0,.514.661c.735.808,1.1.808,3.232.808,1.543,0,3.085,0,4.628-.073,0,1.984,0,3.747.147,5.51a3.577,3.577,0,0,1-.073.882,56.272,56.272,0,0,0,0,6.1c.073,1.4.22,2.865.22,4.261.073,2.865,0,5.657-.147,8.522a56.252,56.252,0,0,0,.073,7.861c.073,1.469,0,3.012.073,4.481v1.175a.953.953,0,0,0,.882.735,16.255,16.255,0,0,0,6.244-.073c.588-.073.735-.294.808-.882a61.62,61.62,0,0,0,.294-8.228,31.945,31.945,0,0,1,.147-3.747c.22-1.69.22-3.453.367-5.142a29.511,29.511,0,0,0,.073-4.481,25.954,25.954,0,0,1-.073-3.379,26.738,26.738,0,0,0-.147-3.159,3.479,3.479,0,0,1-.073-1.249c.073-1.543,0-3.085.147-4.628a25.929,25.929,0,0,0,0-3.379V-27.6c.955,0,1.984,0,2.939.073a20.028,20.028,0,0,0,4.187-.22c1.69-.22,1.984-.441,1.984-1.1C67.093-29.656,66.873-32.962,66.8-33.844Z" transform="translate(16.729 43.181)" fill="#ba66a3"/>
        <path id="Path_7" data-name="Path 7" d="M86.77-31.023c.441-.294.588-.661.294-1.1-.22-.294-.514-.661-.735-.955-1.69-2.2-3.747-4.187-4.922-6.612a1.605,1.605,0,0,0-.22-.367A4.075,4.075,0,0,0,80.6-40.5a2.118,2.118,0,0,0-2.645.808,37.786,37.786,0,0,1-2.351,3.6,33.182,33.182,0,0,1-2.277,2.939.988.988,0,0,0-.147.661c-.073.735.367,1.175,1.249,1.322a1.432,1.432,0,0,0,.588.073,11.917,11.917,0,0,1,3.232.073c.661.073,1.4.073,2.057.147A31.593,31.593,0,0,0,86.77-31.023ZM97.348-9.352a62.7,62.7,0,0,0-1.028-7.861,12.753,12.753,0,0,0-2.645-4.922A12.551,12.551,0,0,0,89.561-26.1a34.274,34.274,0,0,0-3.526-1.616,14.4,14.4,0,0,0-4.481-.735c-.294.073-.441.147-.514.367a2.145,2.145,0,0,0-.147.661c-.073.661-.147,1.469-.22,2.2,0,.588-.22,8.155-.367,8.889-.073.588,0,8.742,0,11.02.073,1.4-.147,7.714,0,11.754,0,.22-.073,3.012.514,3.379-.073.441,1.469.22,3.379.147,2.13-.367,4.408-1.91,6.024-2.939a15.058,15.058,0,0,0,3.747-3.967A20.479,20.479,0,0,0,96.1-1.124c.294-.955.514-1.91.735-2.865A18.741,18.741,0,0,0,97.348-9.352ZM78.027-24.706c0-.147,0-2.939-.514-3.379,0-.367-1.543-.22-3.453-.073-2.13.367-4.408,1.91-6.024,2.939a14,14,0,0,0-3.747,3.967,15.6,15.6,0,0,0-2.057,4.187,17.3,17.3,0,0,0-.735,2.792,19.294,19.294,0,0,0-.588,5.436A61.744,61.744,0,0,0,61.939-1.05a12.245,12.245,0,0,0,2.645,4.922,13.706,13.706,0,0,0,4.187,3.967A23.1,23.1,0,0,0,72.3,9.529a13.474,13.474,0,0,0,4.481.661.552.552,0,0,0,.514-.367,1.617,1.617,0,0,0,.073-.588c.073-.735.147-1.543.22-2.277.073-.514.22-8.081.367-8.889.073-.514,0-8.669,0-11.02C77.954-14.347,78.174-20.665,78.027-24.706Z" transform="translate(26.585 40.655)" fill="#ba66a3"/>
      </g>
    </g>
    <g id="logomark" transform="translate(-81.754 -32.907)">
      <g id="Group_3" data-name="Group 3">
        <path id="Path_8" data-name="Path 8" d="M55.069,65.486v22.02c0,19.586,15.877,28.53,35.465,28.53s35.461-8.944,35.461-28.53V65.486c0-15.791-4.264-23.457-4.264-23.457-11.077-1-20.492,13.261-20.492,13.261-10.3-4.229-21.412-.183-21.412-.183S68.473,40.018,59.337,42.029C59.335,42.029,55.069,48.25,55.069,65.486Z" transform="translate(-45.219 -41.844)" fill="none" stroke="#ba66a3" stroke-linecap="round" stroke-linejoin="round" stroke-miterlimit="10" stroke-width="4"/>
        <path id="Path_9" data-name="Path 9" d="M112.337,88.938a34.6,34.6,0,0,1,12.6,26.741v19.662m-69.331,0V115.679A34.6,34.6,0,0,1,68.217,88.933" transform="translate(-44.965 -19.746)" fill="none" stroke="#ba66a3" stroke-linecap="round" stroke-linejoin="round" stroke-miterlimit="10" stroke-width="4"/>
        <circle id="Ellipse_1" data-name="Ellipse 1" cx="4.338" cy="4.338" r="4.338" transform="translate(50.896 34.351)" fill="#ba66a3"/>
        <circle id="Ellipse_2" data-name="Ellipse 2" cx="4.338" cy="4.338" r="4.338" transform="translate(31.051 34.351)" fill="#ba66a3"/>
        <path id="Path_10" data-name="Path 10" d="M83.622,76.325a1.31,1.31,0,0,0-1.313-1.31H78.238a1.31,1.31,0,0,0-1.31,1.31l3.346,2.364Z" transform="translate(-34.961 -26.278)" fill="#ba66a3" stroke="#ba66a3" stroke-linecap="round" stroke-linejoin="round" stroke-miterlimit="10" stroke-width="4"/>
        <path id="Path_11" data-name="Path 11" d="M111.944,78.048s13.1-10.263,27.155-3.908M75.52,78.048s-13.1-10.263-27.155-3.908" transform="translate(-48.365 -27.663)" fill="none" stroke="#ba66a3" stroke-linecap="round" stroke-linejoin="round" stroke-miterlimit="10" stroke-width="4"/>
      </g>
    </g>
  </g>
</svg>
